<?xml version="1.0" encoding="UTF-8"?>
<svg viewBox="0 0 398.47 80.48" xmlns="http://www.w3.org/2000/svg">
<defs>
<style>.a{fill:#5b575d;}</style>
</defs>
<path class="a" transform="translate(-169.7 -172.99)" d="m416.79 227.4h25.92v11h-37.1v-63.84h11.18zm31.55-52.84v63.88h11.19v-63.88zm-220.68 63.88h-11.76l-4.81-11.79h-24.79l-4.84 11.79h-11.76s19.77-49.08 24.72-61.46c0.92-2.16 2.34-3.26 4.25-3.26s3.35 1.1 4.27 3.26c4.94 12.38 24.72 61.46 24.72 61.46zm-20.66-21.93l-8.32-20.72-8.33 20.71zm69.07 19.13 3.87 9.64a6 6 0 1 1 -11.05 4.47l-3.86-9.54a34.05 34.05 0 1 1 11 -4.57zm-40.36-28.64a22.12 22.12 0 0 0 22.09 22.09 21.74 21.74 0 0 0 2.7 -0.17l-5-12.38h12.92l3.11 7.74a22.08 22.08 0 1 0 -35.82 -17.28zm28.3 30.6-2.44-6a24.83 24.83 0 0 1 -26.72 -15h-6.79a31.23 31.23 0 0 0 29.74 21.68 31.74 31.74 0 0 0 6.2 -0.69zm23.53-21.06h-6.79a24.88 24.88 0 0 1 -8.14 10.4l2.39 6.06a31.29 31.29 0 0 0 12.54 -16.47zm21.46-41.95h-11.22v43.73c0 11.31 9.38 21.11 23.1 21.11 13.56 0 23-9.79 23-21.09v-43.75h-11.14v41.73c0 8.28-5.4 12.28-11.93 12.28s-11.81-4.16-11.81-12.24zm92.79 63.85h-11.79l-4.81-11.8h-24.81l-4.84 11.8h-11.77s19.78-49.09 24.73-61.44c0.91-2.16 2.35-3.26 4.25-3.26s3.35 1.1 4.27 3.26c4.98 12.35 24.72 61.44 24.72 61.44zm-20.68-21.94l-8.32-20.72-8.33 20.71zm187.06 21.94h-11.76l-4.81-11.81h-24.79l-4.81 11.81h-11.79s19.79-49.1 24.72-61.44c0.91-2.16 2.34-3.26 4.25-3.26s3.35 1.1 4.27 3.26c4.95 12.34 24.72 61.44 24.72 61.44zm-20.63-21.95-8.33-20.72-8.32 20.7zm-54.72-15.31c-11.66-5.14-13.4-6.54-13.4-10.49 0-2.54 3-6.19 8.36-6.19 6.08 0 9.06 3.16 10.34 5.61l9.65-4.61c-1.32-3.22-6.32-11.61-19.39-11.61-14.35 0-20.39 8.94-20.39 17.49 0 11.85 12.29 16.4 17.86 18.75s12.67 5.32 12.67 10.9c0 4.56-3.65 7.81-10.52 7.81-6.39 0-10.35-3.77-11.83-7.35l-10.37 4.95c1.41 3.4 6.67 13.21 21.55 13.21 16.31 0 22.4-10.44 22.4-18.62 0-7.57-2.54-13.51-16.93-19.85z"/>
</svg>