<?xml version="1.0" encoding="utf-8"?>
<!-- Generator: Adobe Illustrator 22.1.0, SVG Export Plug-In . SVG Version: 6.00 Build 0)  -->
<svg version="1.1" id="Layer_1" xmlns="http://www.w3.org/2000/svg" xmlns:xlink="http://www.w3.org/1999/xlink" x="0px" y="0px"
	 viewBox="0 0 260 130" style="enable-background:new 0 0 260 130;" xml:space="preserve">
<style type="text/css">
	.st0{fill:#8E7258;}
	.st1{opacity:0.7;fill:#8E7258;}
	.st2{fill:#143A62;}
</style>
<g>
	<g>
		<path class="st0" d="M78.2,40.4h4.7v25.8h15.6v3.1H78.2V40.4z"/>
		<path class="st0" d="M114.4,60.2l-3.8,9.1h-4.9l12.4-28.9h5.7l12.5,28.9h-5l-3.9-9.1H114.4z M126.4,57.3l-3.6-8.3
			c-0.8-1.9-1.4-3.6-1.9-5.3h-0.1c-0.5,1.7-1.1,3.5-1.8,5.2l-3.6,8.4H126.4z"/>
		<path class="st0" d="M144.4,40.4h4.7v14h0.2c1-1.1,2-2.1,2.9-3.1l11.2-10.9h5.9L156,52.7l14.3,16.7h-5.6l-12-14.2l-3.5,3.2v11
			h-4.7V40.4z"/>
		<path class="st0" d="M196.9,55.7h-14.2v10.4h15.8v3.1H178V40.4h19.7v3.1h-15v9.1h14.2V55.7z"/>
		<path class="st0" d="M207.9,64.8c2.1,1,5.2,1.9,8.5,1.9c4.8,0,7.6-2,7.6-4.9c0-2.7-2-4.2-6.9-5.8c-6-1.7-9.6-4.1-9.6-8.2
			c0-4.5,4.7-7.9,11.8-7.9c3.7,0,6.5,0.7,8.1,1.4l-1.3,3c-1.2-0.5-3.6-1.4-6.9-1.4c-5,0-6.9,2.4-6.9,4.3c0,2.7,2.2,4,7.3,5.6
			c6.2,1.9,9.3,4.2,9.3,8.5c0,4.5-4.2,8.3-12.8,8.3c-3.5,0-7.4-0.8-9.3-1.8L207.9,64.8z"/>
		<path class="st1" d="M78.4,85.3c0.6,0.3,1.5,0.5,2.4,0.5c1.4,0,2.2-0.6,2.2-1.4c0-0.8-0.6-1.2-2-1.7c-1.7-0.5-2.8-1.2-2.8-2.4
			c0-1.3,1.4-2.3,3.4-2.3c1.1,0,1.9,0.2,2.3,0.4l-0.4,0.9c-0.3-0.1-1-0.4-2-0.4c-1.4,0-2,0.7-2,1.3c0,0.8,0.6,1.2,2.1,1.6
			c1.8,0.5,2.7,1.2,2.7,2.5c0,1.3-1.2,2.4-3.7,2.4c-1,0-2.1-0.2-2.7-0.5L78.4,85.3z"/>
		<path class="st1" d="M88.7,78.2v3.5h5.1v-3.5h1.4v8.3h-1.4v-3.9h-5.1v3.9h-1.4v-8.3H88.7z"/>
		<path class="st1" d="M107.8,82.3c0,2.9-2.2,4.4-4.9,4.4c-2.8,0-4.7-1.7-4.7-4.2c0-2.6,2.1-4.4,4.9-4.4
			C106,78.1,107.8,79.8,107.8,82.3z M99.6,82.5c0,1.8,1.2,3.4,3.4,3.4c2.2,0,3.4-1.6,3.4-3.5c0-1.7-1.1-3.4-3.4-3.4
			C100.8,79,99.6,80.6,99.6,82.5z"/>
		<path class="st1" d="M112.4,86.6l-2.7-8.3h1.4l1.3,4.2c0.3,1,0.6,2.1,0.8,2.9h0c0.2-0.8,0.5-1.8,0.9-2.9l1.4-4.2h1.4l1.3,4.2
			c0.3,1,0.6,2,0.7,2.9h0c0.2-0.9,0.5-1.8,0.8-2.9l1.4-4.2h1.4l-3,8.3h-1.4l-1.3-4.3c-0.3-1.1-0.5-1.9-0.7-2.7h0
			c-0.2,0.8-0.4,1.6-0.8,2.7l-1.5,4.3H112.4z"/>
		<path class="st1" d="M130.6,82.7h-4.1v3h4.6v0.9h-5.9v-8.3h5.7v0.9h-4.3v2.6h4.1V82.7z"/>
		<path class="st1" d="M133.9,78.3c0.7-0.1,1.7-0.2,2.6-0.2c1.5,0,2.4,0.2,3,0.7c0.5,0.4,0.8,0.9,0.8,1.6c0,1.1-0.9,1.8-2,2.1v0
			c0.8,0.2,1.3,0.8,1.5,1.7c0.3,1.2,0.6,2,0.8,2.3h-1.4c-0.2-0.2-0.4-1-0.7-2c-0.3-1.2-0.9-1.6-2.1-1.6h-1.3v3.6h-1.4V78.3z
			 M135.2,82.1h1.4c1.5,0,2.4-0.6,2.4-1.6c0-1.1-1-1.5-2.4-1.6c-0.7,0-1.1,0-1.3,0.1V82.1z"/>
		<path class="st1" d="M145,78.2v8.3h-1.4v-8.3H145z"/>
		<path class="st1" d="M148.5,86.6v-8.3h1.5l3.4,4.2c0.8,1,1.4,1.9,1.9,2.7l0,0c-0.1-1.1-0.2-2.1-0.2-3.4v-3.5h1.3v8.3h-1.4
			l-3.3-4.2c-0.7-0.9-1.4-1.9-2-2.8l0,0c0.1,1.1,0.1,2.1,0.1,3.4v3.6H148.5z"/>
		<path class="st1" d="M168.1,86.2c-0.6,0.2-1.8,0.5-3.2,0.5c-1.6,0-2.9-0.3-3.9-1.1c-0.9-0.7-1.5-1.8-1.5-3.1
			c0-2.5,2.2-4.3,5.7-4.3c1.2,0,2.2,0.2,2.6,0.4l-0.3,0.9c-0.6-0.2-1.3-0.4-2.3-0.4c-2.6,0-4.2,1.3-4.2,3.4c0,2.1,1.6,3.4,4.1,3.4
			c0.9,0,1.5-0.1,1.8-0.2v-2.5h-2.1v-0.9h3.5V86.2z"/>
		<path class="st1" d="M176,85.3c0.6,0.3,1.5,0.5,2.4,0.5c1.4,0,2.2-0.6,2.2-1.4c0-0.8-0.6-1.2-2-1.7c-1.7-0.5-2.8-1.2-2.8-2.4
			c0-1.3,1.4-2.3,3.4-2.3c1.1,0,1.9,0.2,2.3,0.4l-0.4,0.9c-0.3-0.1-1-0.4-2-0.4c-1.4,0-2,0.7-2,1.3c0,0.8,0.6,1.2,2.1,1.6
			c1.8,0.5,2.7,1.2,2.7,2.5c0,1.3-1.2,2.4-3.7,2.4c-1,0-2.1-0.2-2.7-0.5L176,85.3z"/>
		<path class="st1" d="M184.9,78.3c0.7-0.1,1.5-0.2,2.6-0.2c1.3,0,2.3,0.2,3,0.7c0.6,0.4,0.9,1,0.9,1.7c0,0.8-0.3,1.3-0.8,1.8
			c-0.7,0.6-1.9,0.9-3.2,0.9c-0.4,0-0.8,0-1.1-0.1v3.3h-1.4V78.3z M186.3,82.4c0.3,0.1,0.7,0.1,1.1,0.1c1.6,0,2.6-0.6,2.6-1.8
			c0-1.1-1-1.6-2.5-1.6c-0.6,0-1,0-1.3,0.1V82.4z"/>
		<path class="st1" d="M195.2,84l-1.1,2.6h-1.4l3.6-8.3h1.6l3.6,8.3h-1.5L199,84H195.2z M198.7,83.1l-1-2.4c-0.2-0.5-0.4-1-0.5-1.5
			h0c-0.2,0.5-0.3,1-0.5,1.5l-1,2.4H198.7z"/>
		<path class="st1" d="M211.2,86.3c-0.5,0.2-1.5,0.4-2.8,0.4c-3,0-5.2-1.5-5.2-4.2c0-2.6,2.2-4.4,5.5-4.4c1.3,0,2.1,0.2,2.5,0.4
			l-0.3,0.9c-0.5-0.2-1.3-0.3-2.1-0.3c-2.5,0-4.1,1.3-4.1,3.4c0,2,1.5,3.4,4,3.4c0.8,0,1.7-0.1,2.2-0.3L211.2,86.3z"/>
		<path class="st1" d="M219.4,82.7h-4.1v3h4.6v0.9H214v-8.3h5.7v0.9h-4.3v2.6h4.1V82.7z"/>
		<path class="st1" d="M222.8,85.3c0.6,0.3,1.5,0.5,2.4,0.5c1.4,0,2.2-0.6,2.2-1.4c0-0.8-0.6-1.2-2-1.7c-1.7-0.5-2.8-1.2-2.8-2.4
			c0-1.3,1.4-2.3,3.4-2.3c1.1,0,1.9,0.2,2.3,0.4l-0.4,0.9c-0.3-0.1-1-0.4-2-0.4c-1.4,0-2,0.7-2,1.3c0,0.8,0.6,1.2,2.1,1.6
			c1.8,0.5,2.7,1.2,2.7,2.5c0,1.3-1.2,2.4-3.7,2.4c-1,0-2.1-0.2-2.7-0.5L222.8,85.3z"/>
	</g>
	<g>
		<g>
			<path class="st2" d="M16.8,81.3c-2.4,0-4.3-1.9-4.3-4.3V49.2v-5.6V30h-1.9c-6.4,0-10,5.2-10,11.6v50.9h47V81.3H16.8z"/>
		</g>
		<g>
			<path class="st2" d="M48.5,41.2c2.4,0,4.3,1.9,4.3,4.3v27.8v5.6v13.6h1.9c5.5,0,10-4.5,10-10V39.6c0-5.3-4.3-9.6-9.6-9.6H17.7
				v11.2H48.5z"/>
		</g>
	</g>
</g>
</svg>
