<?xml version="1.0" encoding="utf-8"?>
<!-- Generator: Adobe Illustrator 21.1.0, SVG Export Plug-In . SVG Version: 6.00 Build 0)  -->
<svg version="1.1" id="Layer_1" xmlns="http://www.w3.org/2000/svg" xmlns:xlink="http://www.w3.org/1999/xlink" x="0px" y="0px"
	 viewBox="0 0 2000 632" style="enable-background:new 0 0 2000 632;" xml:space="preserve">
<g>
	<path d="M1.4,617.8L0,200.6l178.3-0.6l0.1,38.2c50.8-32,76.3-49.6,143.2-49.8c44.5-0.1,70.9,20.6,100.5,53.8
		C465,199,504.8,186.2,543,186c33.4-0.1,103.6,34.7,103.8,107.9l1.1,321.7l-170.4,0.6l-1-299.4c-4-13.2-15-21.1-28.8-20.6
		c-13.3,0.4-23.2,8.1-27,20.8l1,299.4l-181.6,0.6l-1-299.4c-5-12.9-14.9-20-28.7-20.6c-13.6-0.6-24,5.5-30.2,17.6l1,302.6L1.4,617.8
		L1.4,617.8z"/>
	<path d="M1081.7,574.2c-2.8-8.3-4.2-21.9-4.2-21.9l-0.9-264c-7.6-29.5-17.3-46.4-39.1-67.7c-41.9-41.2-87.9-34-146.6-34.8
		c-60.3-0.9-103.6-4.7-151.3,32.3c-42.4,32.9-61.4,66.6-67.7,119.9l177.1-0.6l-0.1-34.8c0-15.5,14-27,29.3-26.3
		c14.3,0.6,26.9,11.9,27,24.9l0.2,54.6l-158.2,22.9c-55.7,24.3-84.9,73.5-79.4,134c5.9,65.7,53.3,113.1,118.9,120.4
		c47.6,5.3,82.8-8.1,114.8-43.7l26,25.4l183-0.6C1095.1,602.6,1087.8,592.4,1081.7,574.2z M905.2,511.5
		c-5.6,10.5-14.9,15.5-26.7,14.7c-13.4-1-23.2-9.8-25.6-23l-0.2-63.2l52.3-7.5L905.2,511.5z"/>
	<path d="M1127.9,542.3l-0.9-260.7l-41.7,0.1l-0.2-76l41.7-0.1l-0.2-73.7l165.6-49.1l0.4,113.6l48.6-0.2l0.3,87l-43.4,0.2l0.6,180.1
		c0.1,15.6,3.3,23.9,14.4,31.7c9.4,6.7,16.5,5.3,29.1,5.3l0.4,113l-138.3,0.5c-15.7,0-41.7-8.1-57.9-27.1
		C1134.1,572.5,1128,562.1,1127.9,542.3L1127.9,542.3z"/>
	<polygon points="1371,36.7 1536.7,36.2 1537.7,317.4 1619.2,195.2 1804.7,194.6 1699.5,328.3 1808.2,611.9 1626.1,612.5 
		1579.9,473.9 1542.9,522.1 1543.2,612.8 1372.9,613.3 1371,36.7 	"/>
	<polygon points="1814,194.6 1998.6,194 2000,611.3 1815.3,611.9 1814,194.6 	"/>
	<path d="M1815.9,89.3c-0.2-50.4,40.5-91.3,90.9-91.5c50.4-0.2,91.3,40.5,91.5,90.9c0.2,50.4-40.5,91.3-90.9,91.5
		C1857,180.3,1816.1,139.6,1815.9,89.3L1815.9,89.3z"/>
</g>
</svg>
