<?xml version="1.0" encoding="utf-8"?>
    <!-- Generator: Adobe Illustrator 24.2.1, SVG Export Plug-In . SVG Version: 6.00 Build 0)  -->
<svg version="1.1" id="Group_2" xmlns="http://www.w3.org/2000/svg" xmlns:xlink="http://www.w3.org/1999/xlink" x="0px" y="0px"
     width="95px" height="95px" viewBox="0 0 95 95" style="enable-background:new 0 0 95 95;" xml:space="preserve">
<style type="text/css">
	.st0{fill:#970271;}
</style>
<g id="Group_1">
	<path id="Path_1" class="st0" d="M0,93.5v-92L1.5,0h92L95,1.5v92L93.5,95h-92L0,93.5z M31.8,68.5c-0.2-0.6-0.5-1.3-0.8-1.9
		c-2.4-4.1-6.2-5.8-10.8-5.7c-6.5-0.1-11.9,5.2-11.9,11.7c0,1.8,0.4,3.6,1.2,5.3c2.7,6.1,10.4,8.5,15.8,4.9c0.9-0.7,1.7-1.4,2.5-2.2
		V84h4V70.7h-11v4.1h6.8c-0.1,0.3-0.1,0.5-0.1,0.7c-1.2,3.5-4.8,5.6-8.5,4.9c-4.2-1-6.8-5.3-5.8-9.5c0.6-2.5,2.4-4.6,4.9-5.5
		c3.2-1.3,6.9-0.2,8.9,2.6c0.2,0.2,0.4,0.4,0.7,0.4C28.9,68.5,30.2,68.5,31.8,68.5z M54.3,84h4.3v-9.9c0-2.3,0-4.5,0-6.8
		c0-0.3-0.3-0.7-0.5-0.7c-1.3-0.1-2.5,0-3.9,0v2.3c-0.1-0.1-0.3-0.2-0.4-0.4c-2.7-3.2-7.4-3.1-10.4-0.9c-4.5,3.2-5,10.7-1,14.5
		c2.9,2.9,7.5,3.2,10.7,0.6c0.3-0.4,0.7-0.8,0.9-1.2c0.1,0.1,0.2,0.1,0.3,0.2C54.3,82.6,54.3,83.3,54.3,84z M60.7,84H65v-9.9
		c0-1,0.3-2,1-2.8c1.4-1.5,3.8-1.6,5.3-0.2c0.8,0.8,1.2,1.8,1.2,2.9c0,3,0,6,0,9c0,0.3,0,0.6,0,1h4.4c-0.1-4.2,0-8.2-0.4-12.3
		c-0.2-2.5-2-4.7-4.4-5.3c-2.4-0.9-5.1-0.2-6.8,1.7c-0.2,0.2-0.4,0.4-0.6,0.6c0-0.8-0.1-1.5-0.1-2.1h-3.9
		C60.7,72.5,60.7,78.2,60.7,84L60.7,84z M54.1,47.9c0.9-4.8-2.7-9.5-7.9-10.2c-4.9-0.7-9.5,2.7-10.2,7.6c-0.9,5,2.4,9.8,7.4,10.7
		c0.2,0,0.3,0.1,0.5,0.1c4.8,0.6,8.8-2.8,9.3-5.3c-1.2-0.3-2.4,0.1-3.1,1.1c-1.7,2.1-4.5,2.9-7.1,2c-2.8-0.9-4.3-2.9-5-5.8
		C43.5,47.9,48.8,47.9,54.1,47.9L54.1,47.9z M86.6,80.2h-1.4c-1.2,0-1.5-0.3-1.5-1.5V70h2.9v-3.4h-2.9v-3.8h-4.3v3.8
		c-0.6,0-1,0.1-1.5,0.1v3.3c0.5,0.1,1,0.1,1.5,0.1c0,2.9,0.1,5.8,0,8.6c-0.1,3.7,2.7,6.1,7.3,5.3C86.6,82.7,86.6,81.5,86.6,80.2z
		 M18,55.5V35.1h7.6v-2H8.4v2H16v20.4H18z M38.2,66.6H34V84h4.2V66.6z M31.8,33v22.5c0.4,0,0.7,0.1,1,0.1c0.3,0,0.6,0,1,0V33
		L31.8,33z M29.1,38.2h-2v17.2h2V38.2z M33.7,63.3c0,1.3,1,2.3,2.2,2.4c0.1,0,0.1,0,0.2,0c1.3,0,2.3-1,2.4-2.3c0-1.3-1-2.4-2.3-2.4
		c0,0-0.1,0-0.1,0c-1.2-0.1-2.3,0.9-2.4,2.1C33.7,63.2,33.7,63.3,33.7,63.3L33.7,63.3z M28,35.3c0.7,0,1.4-0.6,1.4-1.3
		c0-0.8-0.5-1.4-1.3-1.5c-0.7,0-1.3,0.6-1.4,1.3C26.7,34.6,27.3,35.2,28,35.3z"/>
    <path id="Path_2" class="st0" d="M49.3,80.5c-2.8,0-5.1-2.3-5.1-5.1c0,0,0-0.1,0-0.1c-0.1-2.8,2-5.1,4.8-5.3c2.8-0.1,5.1,2,5.3,4.8
		c0,0.1,0,0.2,0,0.3c0.1,2.8-2,5.2-4.9,5.3C49.4,80.5,49.4,80.5,49.3,80.5z"/>
    <path id="Path_3" class="st0" d="M38.2,45.7c0.5-3.7,3.5-6,7.4-6c3.3,0.2,5.9,2.7,6.4,6H38.2z"/>
</g>
</svg>
